<svg version="1.1" id="Layer_1" xmlns="http://www.w3.org/2000/svg" xmlns:xlink="http://www.w3.org/1999/xlink" x="0px" y="0px"
	 width="100%" viewBox="0 0 256 272" enable-background="new 0 0 256 272" xml:space="preserve">
<path fill="#000000" opacity="1.000000" stroke="none" 
	d="
M166.000000,273.000000 
	C110.666664,273.000000 55.833332,273.000000 1.000000,273.000000 
	C1.000000,182.333328 1.000000,91.666664 1.000000,1.000000 
	C86.333336,1.000000 171.666672,1.000000 257.000000,1.000000 
	C257.000000,91.666664 257.000000,182.333328 257.000000,273.000000 
	C226.833328,273.000000 196.666672,273.000000 166.000000,273.000000 
M28.995790,201.155090 
	C33.018166,205.777206 37.533554,209.521927 44.010605,210.047348 
	C54.907372,210.931320 64.764435,207.882553 73.950127,202.258438 
	C90.380203,192.198792 103.393799,178.607208 114.427811,162.984802 
	C116.663078,159.820023 118.503365,156.328064 121.878143,153.701920 
	C122.718124,156.212021 121.255516,157.641708 120.576607,159.237244 
	C118.099785,165.058228 115.332718,170.762527 113.031448,176.650116 
	C105.654945,195.522156 101.458992,214.826584 105.510742,235.203033 
	C106.860954,241.993301 110.277977,247.585449 115.120895,252.294113 
	C121.935532,258.919861 132.494431,259.012543 139.620453,252.733795 
	C149.572327,243.965195 152.346405,232.097824 151.931793,219.823715 
	C151.160904,197.002655 143.662643,175.848923 133.438675,155.609940 
	C132.997971,154.737549 132.300507,153.885208 133.755798,153.022522 
	C134.218628,153.393051 134.801804,153.728714 135.207352,154.213104 
	C135.952682,155.103317 136.641113,156.050369 137.270599,157.027008 
	C146.165298,170.827194 156.497879,183.419479 169.398224,193.644531 
	C181.108566,202.926392 193.364716,210.809631 209.468063,210.118607 
	C222.980576,209.538757 231.259277,199.267365 227.884872,186.185043 
	C225.087540,175.339981 217.391129,168.640137 208.465591,163.134079 
	C188.698761,150.940186 166.738647,146.485687 143.878357,145.389664 
	C142.137009,145.306183 139.880936,146.385727 138.738083,143.936264 
	C139.823685,142.068314 141.503250,142.681381 142.873962,142.580307 
	C164.446899,140.989609 185.539474,137.500946 204.737991,126.721405 
	C214.325027,121.338493 222.954254,114.852051 227.231094,104.196434 
	C229.961273,97.394318 229.283859,90.796326 224.954147,84.750145 
	C220.400833,78.391739 213.069565,76.516808 206.446777,76.925735 
	C197.949463,77.450401 189.712006,80.790810 182.080048,85.199112 
	C165.107880,95.002419 152.550156,109.264755 140.990967,124.672401 
	C138.604828,127.852951 137.103836,131.832138 132.655090,135.001343 
	C133.295334,132.812515 133.445053,131.684601 133.932053,130.728485 
	C140.767456,117.308678 146.017487,103.304085 149.369217,88.619011 
	C152.730988,73.890022 153.210098,59.208897 147.067535,45.037041 
	C143.577301,36.984562 137.906876,30.902300 128.493271,30.400675 
	C119.251602,29.908211 113.017899,35.122669 109.170021,42.915493 
	C105.683372,49.976711 104.018417,57.658241 104.001930,65.632294 
	C103.958725,86.529747 109.269630,106.053925 118.881561,124.512306 
	C120.175674,126.997490 121.564133,129.525909 121.683311,132.657211 
	C119.289452,132.114029 118.246796,130.596542 117.316986,129.019379 
	C114.352829,123.991493 110.838905,119.363937 107.144463,114.863853 
	C95.638847,100.849251 82.791824,88.518723 65.742569,81.311012 
	C59.498863,78.671432 53.090641,77.059875 46.317677,77.486435 
	C36.045700,78.133339 25.955145,84.265686 27.103683,97.532013 
	C28.104479,109.091820 35.287880,116.533867 44.043808,122.630920 
	C59.584267,133.452271 77.405563,138.224915 95.870049,140.862747 
	C103.033051,141.886047 110.272507,142.374222 117.972084,143.156464 
	C115.308777,145.295197 115.301796,145.425064 114.315193,145.372040 
	C104.906998,144.866516 95.755859,146.736542 86.617561,148.483719 
	C67.225258,152.191376 48.913513,158.380432 34.745033,173.058014 
	C27.183661,180.891083 24.846470,190.108643 28.995790,201.155090 
z"/>
</svg>