<svg version="1.1" id="Layer_1" xmlns="http://www.w3.org/2000/svg" xmlns:xlink="http://www.w3.org/1999/xlink" x="0px" y="0px"
	 width="100%" viewBox="0 0 284 282" enable-background="new 0 0 284 282" xml:space="preserve">
<path fill="#000000" opacity="1.000000" stroke="none" 
	d="
M187.000000,283.000000 
	C124.666672,283.000000 62.833347,283.000000 1.000017,283.000000 
	C1.000011,189.000015 1.000011,95.000038 1.000005,1.000042 
	C95.666634,1.000028 190.333267,1.000028 284.999939,1.000014 
	C284.999939,94.999962 284.999939,188.999924 284.999969,282.999939 
	C252.500000,283.000000 220.000000,283.000000 187.000000,283.000000 
M226.917358,110.410835 
	C225.954147,109.869972 224.940475,109.402161 224.035553,108.776924 
	C215.117584,102.615143 204.843231,99.591133 194.451950,100.529541 
	C175.789612,102.214882 158.757248,108.940063 144.738342,122.219284 
	C143.750961,119.761925 142.712692,117.644966 142.034790,115.418297 
	C135.517654,94.011444 123.802513,75.908684 107.171112,61.041107 
	C100.727631,55.280972 93.327538,49.747509 84.695366,49.426697 
	C63.297653,48.631454 41.850533,49.165455 18.677942,49.165455 
	C25.757843,60.373573 31.812639,70.765999 38.651405,80.614014 
	C52.096844,99.975822 71.085999,108.935188 94.481522,108.686371 
	C105.248070,108.571869 116.016815,108.217850 126.772583,107.715813 
	C132.525482,107.447281 136.520905,109.442398 138.334671,115.048325 
	C140.147995,120.652824 143.187164,125.813789 136.966690,131.451965 
	C131.532013,136.377899 127.043922,142.647095 123.201118,148.969269 
	C114.736504,162.895279 106.707542,177.022980 101.683578,192.779541 
	C96.403961,209.337891 94.142776,225.998932 96.326462,243.201447 
	C96.877243,247.540314 98.209641,251.786270 99.277245,256.051300 
	C100.202538,259.747742 103.254906,260.974213 106.005577,259.405487 
	C107.647003,258.469391 109.146690,254.666000 108.555374,252.855164 
	C104.461281,240.317459 102.493095,227.631760 104.810585,214.574768 
	C106.484383,205.144455 108.104591,195.630630 110.837189,186.479080 
	C115.246452,171.712265 122.568405,158.146698 131.168457,145.441284 
	C136.547897,137.493912 142.936218,130.169006 149.410995,123.055573 
	C151.738403,120.498589 155.014008,116.882874 159.486389,119.993599 
	C161.997086,121.739899 164.329269,123.772697 166.592224,125.840225 
	C176.245392,134.659821 185.533493,143.910049 195.549789,152.292160 
	C205.060562,160.251221 216.039093,165.794662 228.932831,164.640823 
	C242.212646,163.452423 254.748474,159.355682 266.431580,152.824554 
	C267.376923,152.296097 268.318817,151.761444 269.299225,151.208878 
	C254.664291,137.263016 240.931992,124.177299 226.917358,110.410835 
z"/>
<path fill="#F8F8F8" opacity="1.000000" stroke="none" 
	d="
M227.058533,110.751205 
	C240.931992,124.177299 254.664291,137.263016 269.299225,151.208878 
	C268.318817,151.761444 267.376923,152.296097 266.431580,152.824554 
	C254.748474,159.355682 242.212646,163.452423 228.932831,164.640823 
	C216.039093,165.794662 205.060562,160.251221 195.549789,152.292160 
	C185.533493,143.910049 176.245392,134.659821 166.592224,125.840225 
	C164.329269,123.772697 161.997086,121.739899 159.486389,119.993599 
	C155.014008,116.882874 151.738403,120.498589 149.410995,123.055573 
	C142.936218,130.169006 136.547897,137.493912 131.168457,145.441284 
	C122.568405,158.146698 115.246452,171.712265 110.837189,186.479080 
	C108.104591,195.630630 106.484383,205.144455 104.810585,214.574768 
	C102.493095,227.631760 104.461281,240.317459 108.555374,252.855164 
	C109.146690,254.666000 107.647003,258.469391 106.005577,259.405487 
	C103.254906,260.974213 100.202538,259.747742 99.277245,256.051300 
	C98.209641,251.786270 96.877243,247.540314 96.326462,243.201447 
	C94.142776,225.998932 96.403961,209.337891 101.683578,192.779541 
	C106.707542,177.022980 114.736504,162.895279 123.201118,148.969269 
	C127.043922,142.647095 131.532013,136.377899 136.966690,131.451965 
	C143.187164,125.813789 140.147995,120.652824 138.334671,115.048325 
	C136.520905,109.442398 132.525482,107.447281 126.772583,107.715813 
	C116.016815,108.217850 105.248070,108.571869 94.481522,108.686371 
	C71.085999,108.935188 52.096844,99.975822 38.651405,80.614014 
	C31.812639,70.765999 25.757843,60.373573 18.677942,49.165455 
	C41.850533,49.165455 63.297653,48.631454 84.695366,49.426697 
	C93.327538,49.747509 100.727631,55.280972 107.171112,61.041107 
	C123.802513,75.908684 135.517654,94.011444 142.034790,115.418297 
	C142.712692,117.644966 143.750961,119.761925 144.738342,122.219284 
	C158.757248,108.940063 175.789612,102.214882 194.451950,100.529541 
	C204.843231,99.591133 215.117584,102.615143 224.035553,108.776924 
	C224.940475,109.402161 225.954147,109.869972 227.058533,110.751205 
z"/>
</svg>